<?xml version="1.0" encoding="utf-8"?>
<!-- Generator: Adobe Illustrator 25.0.0, SVG Export Plug-In . SVG Version: 6.00 Build 0)  -->
<svg version="1.1" id="Ebene_1" xmlns="http://www.w3.org/2000/svg" xmlns:xlink="http://www.w3.org/1999/xlink" x="0px" y="0px"
	 viewBox="0 0 1500 690.1" style="enable-background:new 0 0 1500 690.1;" xml:space="preserve">
<style type="text/css">
	.st0{fill:#009871;}
	.st1{fill:#80CDEC;}
</style>
<g id="Elemente">
	<g>
		<path class="st0" d="M16.3,434V17.4h242.2l-4.8,66.4H97.3v120.2H244v66.4H97.3v163.7H16.3V434z"/>
		<path class="st0" d="M491.6,441.3c-111.8,0-189.6-73.7-189.6-215.6S381.2,10,492.3,10s189.1,73.7,189.1,215.6
			S602.7,441.3,491.6,441.3z M492.1,78.5c-65.9,0-105.1,47.8-105.1,147.3c0,98.5,39.3,147.3,105.1,147.3
			c64.7,0,104.5-49,104.5-147.3C596.6,126.1,556.8,78.5,492.1,78.5z"/>
		<path class="st1" d="M1062.7,434h-69.5L821.8,173.7h-1.2V434h-80.9V17.4h69.5l171.5,258.4h1.2V17.4h80.9V434z"/>
		<path class="st0" d="M1395.3,434l-36.2-112.3h-128.7L1194.2,434h-80.9l153.4-416.6h63.3L1482.8,434H1395.3z M1295.8,121.3h-1.2
			l-45.9,142.5h93L1295.8,121.3z"/>
	</g>
	<g>
		<path d="M17.2,653.4v-86.3H65l-0.7,9H28.2v31.4h33.1v9H28.2v36.9H17.2z"/>
		<path d="M100.7,655c-14.7,0-25.9-10-25.9-31.6c0-21.7,12.9-31.6,27.4-31.6c14.7,0,25.9,9.8,25.9,31.6C128.1,645,115,655,100.7,655
			z M101.4,601c-9.3,0-16.2,7.1-16.2,22.4c0,15.2,6.7,22.4,16.2,22.4c9.7,0,16-7.2,16-22.4C117.6,608.1,110.9,601,101.4,601z"/>
		<path d="M173,602.5c-0.7-0.3-2.2-1.2-5.5-1.2c-7.9,0-12.1,4.8-13.8,8.5v43.6h-10.2v-60h9.3v8.8h0.2c1.9-4.3,5.9-10,15.2-10
			c2.4,0,4,0.3,5.5,0.9L173,602.5z"/>
		<path d="M215.4,606c-2.1-1.7-6.6-5.2-13.3-5.2c-6.6,0-9.7,2.8-9.7,6.2c0,4.7,2.8,6.9,9.1,10.2l4.5,2.2c9.3,4.8,14.5,9.8,14.5,18.6
			c0,9.1-6.7,17.1-21.4,17.1c-10,0-15.2-4-17.9-6.4l3.8-9c2.6,2.6,7.1,6.2,14.3,6.2c7.6,0,11.6-2.9,11.6-6.7
			c0-5.7-3.8-7.9-10.5-11.6l-4.5-2.4c-8.6-4.7-12.9-9.7-12.9-17.9c0-9,7.9-15.5,19.3-15.5c9.7,0,14.3,4,16.4,5.7L215.4,606z"/>
		<path d="M273.9,605.1c-1.2-1-5.7-4.3-12.4-4.3c-10.9,0-18.8,6.2-18.8,21.7c0,17.3,7.2,23.5,17.9,23.5c6.4,0,10.4-2.4,12.4-4
			l2.9,7.6c-2.2,2.1-7.1,5.3-17.3,5.3c-15.7,0-26.6-9.3-26.6-32.1c0-21.9,15-31.1,29-31.1c9.1,0,13.5,3.5,16,5.2L273.9,605.1z"/>
		<path d="M328.2,653.4v-35.5c0-11.6-3.5-17.1-12.1-17.1c-8.1,0-12.9,4-15.7,6.6v46.1h-10.2v-88.3l10.2-1.2v35.7h0.2
			c2.9-2.9,8.6-7.6,17.9-7.6c12.8,0,19.7,7.9,19.7,24.3v37.1H328.2z"/>
		<path d="M403.1,653.4h-9.3v-6.7h-0.2c-1.9,2.2-6.7,8.3-18.5,8.3c-12.4,0-19.1-7.6-19.1-24.3v-37.1h10.2v35.5
			c0,11.9,3.5,17.1,11.6,17.1c8.5,0,12.9-4.1,15.4-6.6v-46.1h10.2v59.9H403.1z"/>
		<path d="M459.7,653.4v-35.5c0-11.6-3.5-17.1-12.1-17.1c-8.1,0-12.9,4-15.7,6.6v46.1h-10.2v-60h9.3v6.7h0.2
			c2.4-2.6,8.3-8.3,18.6-8.3c12.8,0,19.7,7.9,19.7,24.3v37.1h-9.8V653.4z"/>
		<path d="M536.6,601.3h-9.1c2.1,3.1,3.5,6.9,3.5,10.9c0,12.8-10.2,20.2-23.5,20.2c-1.7,0-3.5-0.2-5-0.3c-2.1,0.9-5,2.6-5,5.9
			c0,2.4,1.9,4.3,6.4,4.3h12.2c12.6,0,19.8,5.2,19.8,15.9c0,11.4-10.9,21.9-31.7,21.9c-14.3,0-22.4-5.5-22.4-16.2
			c0-9.1,6.9-12.9,10.5-14.7v-0.2c-2.6-2.1-3.8-5.2-3.8-8.5c0-6.2,5.5-9.3,7.1-10v-0.2c-6.2-2.9-10.2-8.8-10.2-17.8
			c0-13.5,10.2-20.2,22.8-20.2c3.3,0,6.2,0.5,9,1.6h20.7L536.6,601.3z M497.6,651c-3.1,1.9-6.2,4.8-6.2,10.7c0,6.7,4.5,9.7,13.5,9.7
			c14.7,0,20.9-5.7,20.9-11.7c0-5.7-2.9-7.9-9.7-7.9h-13.3C500.7,651.5,499.2,651.5,497.6,651z M508.3,600.3
			c-6.9,0-12.9,3.3-12.9,11.9c0,8.6,6.2,11.9,12.8,11.9c6.9,0,12.9-3.3,12.9-11.9C521.1,603.6,514.9,600.3,508.3,600.3z"/>
		<path d="M605.8,602h-14.3v51.4h-10.2V602H573V595l8.3-1.6v-10.2c0-13.5,7.1-20.2,19.1-20.2c4.3,0,7.2,1.6,7.9,1.9l-1.4,8.8
			c-0.9-0.3-3.5-1.6-6.7-1.6c-5.9,0-8.8,2.9-8.8,11.2v10h15.7L605.8,602z"/>
		<path d="M665.5,653.4h-9.3v-6.7H656c-1.9,2.2-6.7,8.3-18.5,8.3c-12.4,0-19.1-7.6-19.1-24.3v-37.1h10.2v35.5
			c0,11.9,3.5,17.1,11.6,17.1c8.5,0,12.9-4.1,15.4-6.6v-46.1h10.2v59.9H665.5z M631,582.5c-3.5,0-6.2-2.4-6.2-6.4
			c0-3.8,2.8-6.4,6.2-6.4s6.2,2.6,6.2,6.4C637.2,580.1,634.4,582.5,631,582.5z M652.4,582.5c-3.5,0-6.2-2.4-6.2-6.4
			c0-3.8,2.8-6.4,6.2-6.4c3.4,0,6.2,2.6,6.2,6.4C658.4,580.1,655.6,582.5,652.4,582.5z"/>
		<path d="M713.4,602.5c-0.7-0.3-2.2-1.2-5.5-1.2c-7.9,0-12.1,4.8-13.8,8.5v43.6h-10.2v-60h9.3v8.8h0.2c1.9-4.3,5.9-10,15.2-10
			c2.4,0,4,0.3,5.5,0.9L713.4,602.5z"/>
		<path d="M821.4,653.4h-10.2l-43.3-66.6h-0.2v66.6h-10.9v-86.3h10.2l43.3,66.2h0.2v-66.2h10.9V653.4z"/>
		<path d="M865.9,620.1h5v-4.7c0-10.5-4.1-14.5-11.9-14.5c-7.2,0-12.2,3.5-14.8,5.5l-3.8-7.4c3.1-2.4,9.3-7.1,20.5-7.1
			c13.1,0,20.2,7.6,20.2,23.5V641c0,5.2,0.5,10.9,0.7,12.4h-9.7l-0.3-6.6h-0.2c-2.1,3.5-7.2,8.1-16.7,8.1c-9.8,0-16.2-7.1-16.2-17.1
			C838.5,625.5,850.4,620.1,865.9,620.1z M870.9,640.3v-12.9l-5.7,0.2c-11.4,0.5-16.6,3.3-16.6,9.7c0,5.9,4,9.1,8.5,9.1
			C865.1,646.4,868.7,642.7,870.9,640.3z"/>
		<path d="M937.9,605.1c-1.2-1-5.7-4.3-12.4-4.3c-10.9,0-18.8,6.2-18.8,21.7c0,17.3,7.2,23.5,17.9,23.5c6.4,0,10.4-2.4,12.4-4
			l2.9,7.6c-2.2,2.1-7.1,5.3-17.3,5.3c-15.7,0-26.6-9.3-26.6-32.1c0-21.9,15-31.1,29-31.1c9.1,0,13.5,3.5,16,5.2L937.9,605.1z"/>
		<path d="M992.4,653.4v-35.5c0-11.6-3.4-17.1-12.1-17.1c-8.1,0-12.9,4-15.7,6.6v46.1h-10.2v-88.3l10.2-1.2v35.7h0.2
			c2.9-2.9,8.6-7.6,17.9-7.6c12.8,0,19.7,7.9,19.7,24.3v37.1H992.4z"/>
		<path d="M1058.4,653.4v-35.5c0-11.6-3.4-17.1-12.1-17.1c-8.1,0-12.9,4-15.7,6.6v46.1h-10.2v-88.3l10.2-1.2v35.7h0.2
			c2.9-2.9,8.6-7.6,17.9-7.6c12.8,0,19.7,7.9,19.7,24.3v37.1H1058.4z"/>
		<path d="M1110.2,620.1h5v-4.7c0-10.5-4.1-14.5-11.9-14.5c-7.2,0-12.2,3.5-14.8,5.5l-3.8-7.4c3.1-2.4,9.3-7.1,20.5-7.1
			c13.1,0,20.2,7.6,20.2,23.5V641c0,5.2,0.5,10.9,0.7,12.4h-9.8l-0.3-6.6h-0.2c-2.1,3.5-7.2,8.1-16.7,8.1c-9.8,0-16.2-7.1-16.2-17.1
			C1082.8,625.5,1094.5,620.1,1110.2,620.1z M1115.2,640.3v-12.9l-5.7,0.2c-11.4,0.5-16.6,3.3-16.6,9.7c0,5.9,4,9.1,8.5,9.1
			C1109.2,646.4,1112.9,642.7,1115.2,640.3z"/>
		<path d="M1153.7,638.8c0,5.7,1.7,7.4,5.7,7.4c2.1,0,3.6-0.5,4.3-0.7l0.7,7.2c-0.7,0.3-3.5,1.9-8.3,1.9c-7.9,0-12.4-3.6-12.4-15.4
			v-74.2l10.2-1.2v74.9H1153.7z"/>
		<path d="M1203.9,602h-15.5v31.1c0,9.3,2.4,12.9,9,12.9c3.3,0,5.7-1.2,7.1-1.7l1,8.1c-1,0.7-4.3,2.6-10.7,2.6
			c-11.7,0-16.4-6.7-16.4-20.5V602h-8.3V595l8.3-1.6l1.2-16.7h9v16.7h16.7L1203.9,602z"/>
		<path d="M1222.8,578.9c-4,0-7.1-2.8-7.1-7.1s3.1-7.2,7.1-7.2c4,0,7.2,2.9,7.2,7.2S1226.8,578.9,1222.8,578.9z M1227.8,653.4h-10.2
			v-60h10.2V653.4z"/>
		<path d="M1295.3,601.3h-9.1c2.1,3.1,3.5,6.9,3.5,10.9c0,12.8-10.2,20.2-23.5,20.2c-1.7,0-3.4-0.2-5-0.3c-2.1,0.9-5,2.6-5,5.9
			c0,2.4,1.9,4.3,6.4,4.3h12.2c12.6,0,19.8,5.2,19.8,15.9c0,11.4-10.9,21.9-31.7,21.9c-14.3,0-22.4-5.5-22.4-16.2
			c0-9.1,6.9-12.9,10.5-14.7v-0.2c-2.6-2.1-3.8-5.2-3.8-8.5c0-6.2,5.5-9.3,7.1-10v-0.2c-6.2-2.9-10.2-8.8-10.2-17.8
			c0-13.5,10.2-20.2,22.8-20.2c3.3,0,6.2,0.5,9,1.6h20.7L1295.3,601.3z M1256.3,651c-3.1,1.9-6.2,4.8-6.2,10.7
			c0,6.7,4.5,9.7,13.5,9.7c14.7,0,20.9-5.7,20.9-11.7c0-5.7-2.9-7.9-9.7-7.9h-13.3C1259.4,651.5,1257.7,651.5,1256.3,651z
			 M1266.8,600.3c-6.9,0-12.9,3.3-12.9,11.9c0,8.6,6.2,11.9,12.8,11.9c6.9,0,12.9-3.3,12.9-11.9
			C1279.6,603.6,1273.4,600.3,1266.8,600.3z"/>
		<path d="M1332.2,620.5l24.8,32.9h-12.8l-20.4-27.9h-5v27.9h-10.2v-88.3l10.2-1.2v53h5.2l19.7-23.5h12.2L1332.2,620.5z"/>
		<path d="M1407.9,625.7h-34.8c0.7,14,7.4,20.4,18.3,20.4c9.5,0,14.1-4.1,15.7-5.7l2.9,7.2c-2.1,2.1-7.1,7.4-19.8,7.4
			c-17.1,0-27.3-9.8-27.3-32.3c0-21,12.4-30.7,26-30.7c12.4,0,20.2,8.5,20.2,23.5C1409.1,619.5,1408.6,622.7,1407.9,625.7z
			 M1373.1,617.7h26.2c0.2-1.6,0.2-2.8,0.2-4c0-8.5-4.3-13.1-11.6-13.1C1379.6,600.6,1373.8,606.7,1373.1,617.7z"/>
		<path d="M1430.2,578.9c-4,0-7.1-2.8-7.1-7.1s3.1-7.2,7.1-7.2s7.2,2.9,7.2,7.2S1434.3,578.9,1430.2,578.9z M1435.2,653.4H1425v-60
			h10.2V653.4z"/>
		<path d="M1482.1,602h-15.5v31.1c0,9.3,2.4,12.9,9,12.9c3.3,0,5.7-1.2,7.1-1.7l1,8.1c-1,0.7-4.3,2.6-10.7,2.6
			c-11.7,0-16.4-6.7-16.4-20.5V602h-8.3V595l8.3-1.6l1.2-16.7h9v16.7h16.7L1482.1,602z"/>
	</g>
</g>
</svg>
